<svg version="1.1" xmlns="http://www.w3.org/2000/svg" xmlns:xlink="http://www.w3.org/1999/xlink" xmlns:i="http://ns.adobe.com/AdobeIllustrator/10.0/" xmlns:sketch="http://www.bohemiancoding.com/sketch/ns" height="100%" width="100%" x="0px" y="0px" viewBox="0 0 640 480" xml:space="preserve" preserveAspectRatio="xMidYMid meet" class="">{{text2Gradient}}<rect x="0px" y="0px" width="100%" height="100%" fill="none"/><g class="logo-container-box logoContainerBox" transform="scale(0.99) translate(-18.646872934668977,2.4242424242424363)"><g class="containerBody" transform="scale(1.12) translate(112.63919339861184,-25.714285714285722)" ><g class="sampleIconBox" transform="scale(0.762195169228355) translate(55.91038465372719,74.87998046874998)"><g class="iconFrame" transform="scale(1) translate(-18.610784339904797,140.10000586509705)"  fill="#d8f1ff"><g>
	<path class="st0" d="M196.2,81c-1.2-6.3-3.1-12.4-5.5-18.4c-4.8-11.9-12-22.8-21-32S149.8,14,138,9c-8-3.4-16.5-5.6-25.1-6.7
		c-4.1-0.5-8.1-0.8-12.2-0.8c-0.1,0-0.2,0-0.2,0c-0.1,0-0.1,0-0.2,0C87.4,1.5,74.4,4,62.5,9c-11.9,5-22.8,12.3-31.9,21.5
		c-9.1,9.1-16.4,20.1-21.2,32c-4.9,11.9-7.3,24.7-7.3,37.6c0.1,6.4,0.7,12.8,2,19.1c1.3,6.2,3.2,12.4,5.6,18.3
		c4.9,11.8,12.2,22.6,21.2,31.7c4.5,4.5,9.5,8.6,14.8,12.2s11,6.7,16.9,9.2c9.8,4.1,20.2,6.6,30.8,7.4c2.4,0.2,4.8,0.3,7.2,0.3
		c5.5,0,11-0.5,16.4-1.5h0.1c7.1-1.2,14.1-3.2,20.7-6c11.9-5,22.7-12.3,31.7-21.5s16.2-20.1,21-32c2.4-6,4.3-12.1,5.5-18.4
		c1.2-6.2,1.8-12.6,1.8-19C197.9,93.7,197.3,87.3,196.2,81z M46.2,180.9c-5.3-3.5-10.3-7.5-14.8-12c-4.6-4.5-8.6-9.4-12.2-14.7
		c-3.5-5.3-6.5-11-9-16.8c-4.9-11.8-7.3-24.5-7.2-37.2C3.2,87.4,5.8,74.7,10.7,63c4.9-11.7,12.2-22.4,21.1-31.3
		c4-4,8.2-7.5,12.8-10.7c-4,3.1-7.8,6.6-11.2,10.3c-8.6,9.2-15.3,20.1-19.8,31.9C9.2,74.9,7,87.5,7,100.1c0.1,6.3,0.7,12.6,1.8,18.7
		c1.1,6.1,2.9,12.2,5.2,18c4.6,11.7,11.3,22.5,19.8,31.7c4.3,4.6,9,8.8,14.1,12.5c3.5,2.6,7.2,4.9,11.1,6.9
		C54.5,185.9,50.3,183.5,46.2,180.9z M136.8,189.4c-3.4,1.5-6.9,2.8-10.4,3.8c-2.4,0.7-4.8,1.2-7.2,1.7c-6.2,1.2-12.5,1.9-18.9,1.9
		c-5.5,0-11.1-0.4-16.6-1.3c-6.6-1.2-13-3.2-19.2-5.9c-5.6-2.5-11.1-5.6-16.2-9.2c-5-3.6-9.8-7.7-14-12.3
		c-4.2-4.5-8.1-9.4-11.3-14.8c-3.3-5.3-6.1-10.9-8.3-16.7c-4.5-11.6-6.7-24.1-6.6-36.5c0.1-12.4,2.4-24.8,6.9-36.4
		s11.2-22.2,19.7-31.3c8.5-9,18.7-16.4,30-21.4c5.6-2.5,11.6-4.4,17.6-5.7s12.2-2,18.4-2c6.2,0,12.4,0.6,18.4,1.9
		c6.1,1.2,12,3.1,17.6,5.6c11.3,4.9,21.5,12.3,30.1,21.3c8.5,9,15.3,19.7,19.9,31.3c4.6,11.6,6.9,24,6.9,36.5
		c-0.1,12.5-2.3,24.9-6.9,36.7c-4.6,11.6-11.3,22.3-19.9,31.3C158.4,177,148.1,184.4,136.8,189.4z M190.3,137.2
		c-5,11.8-12.3,22.5-21.4,31.4c-3.3,3.3-6.9,6.3-10.6,9c3.3-2.8,6.5-5.8,9.4-8.9c8.5-9.2,15.1-20.1,19.5-31.9
		c2.2-5.9,3.9-11.9,5-18.1c1.1-6.2,1.7-12.4,1.7-18.7c0-6.2-0.5-12.5-1.7-18.7c-1.1-6.2-2.8-12.2-5-18.1
		c-4.5-11.7-11.1-22.6-19.5-31.9c-2.7-2.9-5.5-5.8-8.6-8.3c3.4,2.6,6.7,5.4,9.7,8.4c9.1,8.9,16.4,19.6,21.4,31.3
		c5,11.8,7.5,24.5,7.5,37.3C197.7,112.9,195.2,125.6,190.3,137.2z"/>
</g></g><g class="sampleIcons_1" transform="scale(1.2320829234521296) translate(11.230233329772943,145.8737668991089)" fill="#d8f1ff"><g><g><g><g><g><g><path d="M67.7,21.3l-2.2,5.4l-7.8,18.9l30-11.7c-2-4.4-4.9-8.5-8.6-11.9c-2.8-2.5-5.8-4.6-9.1-6.2L67.7,21.3z M35.3,13        c9.5-5,20.7-6,30.9-2.9c5.7,1.7,11,4.7,15.6,9C98.2,34.3,99.2,60,84.1,76.4c-8,8.7-18.9,13.1-29.9,13.1        c-7.5,0-15.1-2.1-21.7-6.3c-1.2-0.7-2.3-1.5-3.4-2.4c-0.8-0.6-1.6-1.3-2.4-2c-9.3-8.5-13.6-20.4-13-32.1c0-0.4,0-0.7,0.1-1.1        c0.1-1.9,0.4-3.7,0.8-5.5c0.5-2.1,1.1-4.1,1.9-6.1c1.3-3.3,3.1-6.5,5.3-9.4c0.8-1.1,1.7-2.1,2.6-3.2c2-2.2,4.2-4.1,6.6-5.7        C32.4,14.7,33.8,13.8,35.3,13z M19.9,61.7c0,0,0-0.1,0-0.1c0-2,1.6-3.6,3.6-3.6s3.6,1.6,3.6,3.6c0,2-1.6,3.6-3.6,3.6        c-1.1,0-2-0.5-2.7-1.2c1.3,2.8,2.9,5.5,4.9,7.9c-0.2-0.4-0.3-0.9-0.3-1.4c0-2,1.6-3.6,3.6-3.6s3.6,1.6,3.6,3.6        c0,2-1.6,3.6-3.6,3.6c-0.7,0-1.3-0.2-1.8-0.5c0.6,0.7,1.4,1.4,2.1,2.1c0.3,0.3,0.6,0.6,0.9,0.8c0.6-0.5,1.3-0.7,2.2-0.7        c2,0,3.6,1.6,3.6,3.6c0,0.4-0.1,0.7-0.2,1.1v0c5.9,3.4,12.7,5.1,19.7,4.8c0.6,0,1.2-0.1,1.8-0.1l-0.6-3.9        c-0.6,1-1.8,1.8-3.1,1.8c-2,0-3.6-1.6-3.6-3.6c0-2,1.6-3.6,3.6-3.6c0.9,0,1.7,0.3,2.4,0.9L54.4,65c-1.5-0.5-2.5-1.8-2.5-3.5        c0-1.2,0.6-2.3,1.5-3L53,56.1c-0.3,0.1-0.6,0.1-0.9,0.1c-2,0-3.6-1.6-3.6-3.6c0-1.9,1.5-3.5,3.5-3.6v0l8.2-19.8        c-0.3,0.1-0.7,0.1-1,0.1c-2,0-3.6-1.6-3.6-3.6s1.6-3.6,3.6-3.6c1.4,0,2.6,0.8,3.2,1.9l1.6-3.9c-1.4-0.5-2.3-1.9-2.3-3.4        c0-1.3,0.7-2.5,1.8-3.1c-2.9-0.8-6-1.2-9.1-1.2c-0.5,0-1,0-1.5,0c-2.2,0.1-4.3,0.4-6.4,0.8c1.4,0.5,2.4,1.8,2.4,3.4        c0,2-1.6,3.6-3.6,3.6c-2,0-3.6-1.6-3.6-3.6c0-0.9,0.3-1.7,0.8-2.3c-1.4,0.5-2.8,1.1-4.2,1.8c0,0.2,0,0.3,0,0.5        c0,2-1.6,3.6-3.6,3.6c-0.8,0-1.5-0.2-2.1-0.7c-1.2,0.9-2.3,1.8-3.4,2.9c1,0.7,1.8,1.8,1.8,3.2c0,2-1.6,3.6-3.6,3.6        c-1.2,0-2.2-0.6-2.9-1.4c-0.7,1-1.4,2.1-2,3.2c1.8,0.2,3.2,1.7,3.2,3.6c0,2-1.6,3.6-3.6,3.6c-0.9,0-1.7-0.3-2.4-0.9        c-0.3,1-0.6,1.9-0.8,2.9c0.9,0.6,1.5,1.7,1.5,2.9c0,1.6-1,2.9-2.4,3.4c-0.1,1-0.1,2.1-0.1,3.1c0.6-0.5,1.4-0.8,2.3-0.8        c2,0,3.6,1.6,3.6,3.6c0,2-1.6,3.6-3.6,3.6c-0.6,0-1.1-0.1-1.6-0.4C18.7,57.8,19.2,59.8,19.9,61.7z M90.8,49c0-0.5,0-1,0-1.6        c0-0.6-0.1-1.1-0.1-1.7l-12-4l-4.5,1.7L90.8,49z M90.6,53.2l-22.1-7.4l0-0.1l-4.6,1.8l26.2,8.8C90.3,55.2,90.5,54.2,90.6,53.2        z M84.5,39.5l5.5,1.9c-0.3-1.2-0.6-2.4-1-3.6L84.5,39.5z M89.1,60.1L58,49.8l-1.8,0.7l0.3,2L88,63        C88.4,62.1,88.8,61.1,89.1,60.1z M86.3,66.6l-29-9.7l0.5,3.4l26.9,9C85.2,68.4,85.8,67.5,86.3,66.6z M81.1,73.7        c0.3-0.3,0.6-0.7,0.9-1l-23.6-7.9l0.5,3.4l20.8,6.9C80.2,74.7,80.7,74.2,81.1,73.7z M76.2,78.2l-16.6-5.5l0.5,3.4L73,80.3        C74.1,79.7,75.2,79,76.2,78.2z M67.9,82.9l-7.1-2.4l0.6,4.3C63.7,84.3,65.8,83.7,67.9,82.9z"></path><circle cx="55.8" cy="16.6" r="3.6"></circle><path d="M57.4,34.6c0,2-1.6,3.6-3.6,3.6c-2,0-3.6-1.6-3.6-3.6c0-2,1.6-3.6,3.6-3.6C55.8,31,57.4,32.6,57.4,34.6z"></path><path d="M50.4,66.9c2,0,3.6,1.6,3.6,3.6c0,2-1.6,3.6-3.6,3.6c-2,0-3.6-1.6-3.6-3.6C46.8,68.6,48.4,66.9,50.4,66.9z"></path><path d="M48.5,22c2,0,3.6,1.6,3.6,3.6s-1.6,3.6-3.6,3.6c-2,0-3.6-1.6-3.6-3.6S46.5,22,48.5,22z"></path><path d="M51.2,43.6c0,2-1.6,3.6-3.6,3.6c-2,0-3.6-1.6-3.6-3.6c0-2,1.6-3.6,3.6-3.6C49.5,39.9,51.2,41.6,51.2,43.6z"></path><path d="M44.9,57.9c2,0,3.6,1.6,3.6,3.6c0,2-1.6,3.6-3.6,3.6c-2,0-3.6-1.6-3.6-3.6C41.2,59.6,42.8,57.9,44.9,57.9z"></path><path d="M43.2,31c2,0,3.6,1.6,3.6,3.6c0,2-1.6,3.6-3.6,3.6s-3.6-1.6-3.6-3.6C39.5,32.6,41.2,31,43.2,31z"></path><path d="M43.2,75.9c2,0,3.6,1.6,3.6,3.6c0,2-1.6,3.6-3.6,3.6s-3.6-1.6-3.6-3.6C39.5,77.5,41.2,75.9,43.2,75.9z"></path><path d="M41.5,48.9c2,0,3.6,1.6,3.6,3.6c0,2-1.6,3.6-3.6,3.6c-2,0-3.6-1.6-3.6-3.6C37.9,50.6,39.5,48.9,41.5,48.9z"></path><path d="M39.8,66.9c2,0,3.6,1.6,3.6,3.6c0,2-1.6,3.6-3.6,3.6c-2,0-3.6-1.6-3.6-3.6C36.2,68.6,37.8,66.9,39.8,66.9z"></path><path d="M37.9,22c2,0,3.6,1.6,3.6,3.6s-1.6,3.6-3.6,3.6c-2,0-3.6-1.6-3.6-3.6S35.8,22,37.9,22z"></path><circle cx="36.9" cy="43.6" r="3.6"></circle><path d="M34.2,57.9c2,0,3.6,1.6,3.6,3.6c0,2-1.6,3.6-3.6,3.6c-2,0-3.6-1.6-3.6-3.6C30.6,59.6,32.2,57.9,34.2,57.9z"></path><path d="M32.5,31c2,0,3.6,1.6,3.6,3.6c0,2-1.6,3.6-3.6,3.6s-3.6-1.6-3.6-3.6C28.9,32.6,30.5,31,32.5,31z"></path><path d="M30.8,48.9c2,0,3.6,1.6,3.6,3.6c0,2-1.6,3.6-3.6,3.6s-3.6-1.6-3.6-3.6C27.2,50.6,28.8,48.9,30.8,48.9z"></path><circle cx="26.3" cy="43.6" r="3.6"></circle></g></g></g></g></g></g></g></g><g class="sampleTexts_1" transform="scale(1) translate(0.000006103515630684342,25.485000610351562)"><g class="logo--name svgLogoName_1 logoNameBox" transform="scale(1) translate(195.1999999523163,240)" fill="#d8f1ff"><path d="M36.76-27.71L34.07-27.71L34.07-27.71Q33.11-27.71 32.47-27.07L32.47-27.07L32.47-27.07Q31.83-26.43 31.83-25.50L31.83-25.50L31.83-25.50Q31.83-24.54 32.47-23.90L32.47-23.90L32.47-23.90Q33.11-23.26 34.07-23.26L34.07-23.26L36.76-23.26L36.76-23.26Q40.64-23.26 43.36-20.50L43.36-20.50L43.36-20.50Q46.13-17.74 46.13-13.85L46.13-13.85L46.13-13.85Q46.13-9.97 43.36-7.21L43.36-7.21L43.36-7.21Q40.64-4.48 36.76-4.48L36.76-4.48L5.45-4.48L5.45-4.48Q4.52-4.48 3.84-3.80L3.84-3.80L3.84-3.80Q3.20-3.16 3.20-2.24L3.20-2.24L3.20-2.24Q3.20-1.32 3.84-0.64L3.84-0.64L3.84-0.64Q4.52 0 5.45 0L5.45 0L36.76 0L36.76 0Q42.48 0 46.53-4.08L46.53-4.08L46.53-4.08Q50.61-8.13 50.61-13.85L50.61-13.85L50.61-13.85Q50.61-19.58 46.53-23.66L46.53-23.66L46.53-23.66Q42.48-27.71 36.76-27.71L36.76-27.71ZM17.06-23.26L19.74-23.26L19.74-23.26Q20.66-23.26 21.34-23.90L21.34-23.90L21.34-23.90Q21.98-24.54 21.98-25.50L21.98-25.50L21.98-25.50Q21.98-26.43 21.34-27.07L21.34-27.07L21.34-27.07Q20.66-27.71 19.74-27.71L19.74-27.71L17.06-27.71L17.06-27.71Q13.17-27.71 10.41-30.47L10.41-30.47L10.41-30.47Q7.69-33.23 7.69-37.12L7.69-37.12L7.69-37.12Q7.69-41 10.41-43.76L10.41-43.76L10.41-43.76Q13.17-46.53 17.06-46.53L17.06-46.53L48.37-46.53L48.37-46.53Q49.29-46.53 49.93-47.17L49.93-47.17L49.93-47.17Q50.61-47.81 50.61-48.73L50.61-48.73L50.61-48.73Q50.61-49.65 49.93-50.33L49.93-50.33L49.93-50.33Q49.29-50.97 48.37-50.97L48.37-50.97L17.06-50.97L17.06-50.97Q11.33-50.97 7.29-46.93L7.29-46.93L7.29-46.93Q3.20-42.84 3.20-37.12L3.20-37.12L3.20-37.12Q3.20-31.39 7.29-27.31L7.29-27.31L7.29-27.31Q11.33-23.26 17.06-23.26L17.06-23.26ZM81.60 0L81.60 0Q80.68 0 80.00-0.64L80.00-0.64L80.00-0.64Q79.36-1.32 79.36-2.24L79.36-2.24L79.36-48.73L79.36-48.73Q79.36-49.65 80.00-50.33L80.00-50.33L80.00-50.33Q80.68-50.97 81.60-50.97L81.60-50.97L81.60-50.97Q82.52-50.97 83.16-50.33L83.16-50.33L83.16-50.33Q83.84-49.65 83.84-48.73L83.84-48.73L83.84-2.24L83.84-2.24Q83.84-1.32 83.16-0.64L83.16-0.64L83.16-0.64Q82.52 0 81.60 0L81.60 0ZM157.75 0L122.00 0L122.00 0Q118.11 0 115.35-2.76L115.35-2.76L115.35-2.76Q112.59-5.53 112.59-9.41L112.59-9.41L112.59-41.60L112.59-41.60Q112.59-45.48 115.35-48.21L115.35-48.21L115.35-48.21Q118.11-50.97 122.00-50.97L122.00-50.97L157.75-50.97L157.75-50.97Q158.67-50.97 159.31-50.33L159.31-50.33L159.31-50.33Q159.99-49.65 159.99-48.73L159.99-48.73L159.99-48.73Q159.99-47.81 159.31-47.17L159.31-47.17L159.31-47.17Q158.67-46.53 157.75-46.53L157.75-46.53L122.00-46.53L122.00-46.53Q119.95-46.53 118.51-45.04L118.51-45.04L118.51-45.04Q117.07-43.60 117.07-41.60L117.07-41.60L117.07-9.41L117.07-9.41Q117.07-7.37 118.51-5.93L118.51-5.93L118.51-5.93Q119.95-4.48 122.00-4.48L122.00-4.48L157.75-4.48L157.75-4.48Q158.67-4.48 159.31-3.80L159.31-3.80L159.31-3.80Q159.99-3.16 159.99-2.24L159.99-2.24L159.99-2.24Q159.99-1.32 159.31-0.64L159.31-0.64L159.31-0.64Q158.67 0 157.75 0L157.75 0Z"/></g><g id="" class="logo--name svgSloganText_1 sloganBox" transform="scale(1) translate(198.4,254.4)" fill="#d8f1ff"><path d=""/></g></g></g></g></svg>